<svg viewBox="0 0 512 512" xmlns="http://www.w3.org/2000/svg" xmlns:xlink="http://www.w3.org/1999/xlink" id="Layer_1" overflow="hidden"><g transform="translate(1 1)"><g><g><path d="M470.579-1 272.965-1C257.695-1 246.018 10.677 246.018 25.947L246.018 34.863C224.609 23.443 200.152 16.965 174.158 16.965 89.723 16.965 21.456 85.232 21.456 169.667 21.456 195.144 27.821 219.751 39.556 241.527L39.421 241.527C24.151 241.527 12.474 253.204 12.474 268.474L12.474 430.158C12.474 441.835 19.66 451.716 30.439 455.309L30.439 502.018C30.439 505.611 32.236 509.204 35.828 510.102 36.726 511 38.523 511 39.421 511 42.116 511 43.912 510.102 45.709 508.305L96.909 457.105 290.93 457.105C306.2 457.105 317.877 445.428 317.877 430.158L317.877 361.891 339.435 340.333 470.579 340.333C485.849 340.333 497.526 328.656 497.526 313.386L497.526 25.947C497.526 10.677 485.849-1 470.579-1ZM174.158 34.93C201.799 34.93 227.46 43.209 248.816 57.419 249.078 57.724 249.343 58.017 249.611 58.284 284.063 81.812 305.934 119.492 308.613 161.024 308.624 161.195 308.635 161.365 308.645 161.536 308.712 162.642 308.761 163.752 308.801 164.864 308.811 165.146 308.825 165.428 308.833 165.71 308.872 167.026 308.895 168.344 308.895 169.666 308.895 169.666 308.895 169.666 308.895 169.666 308.895 170.988 308.872 172.306 308.833 173.622 308.825 173.905 308.811 174.186 308.801 174.469 308.761 175.58 308.712 176.69 308.645 177.796 308.635 177.967 308.623 178.138 308.613 178.309 305.934 219.841 284.063 257.52 249.611 281.049 249.343 281.317 249.078 281.61 248.816 281.914 243.797 285.254 238.542 288.267 233.077 290.921 207.994 302.822 179.809 306.92 152.253 302.431 145.183 301.198 138.113 299.426 131.043 297.217 128.348 295.42 124.755 296.319 122.061 299.014L93.317 327.758 93.317 281.948C93.317 279.253 92.419 276.559 89.724 274.762 87.891 273.243 86.104 271.68 84.358 270.083 84.136 269.88 83.913 269.677 83.692 269.472 83.021 268.851 82.358 268.222 81.7 267.589 74.927 261.031 68.614 253.551 62.777 245.12 62.73 245.073 62.676 245.027 62.628 244.981 47.781 223.052 39.422 197.158 39.422 169.668 39.421 95.112 99.604 34.93 174.158 34.93ZM299.912 430.158C299.912 435.547 296.319 439.14 290.93 439.14L93.316 439.14C90.621 439.14 88.825 440.038 87.028 441.835L48.404 480.46 48.404 448.123C48.404 442.734 44.811 439.141 39.422 439.141 34.033 439.141 30.44 435.548 30.44 430.159L30.44 268.474C30.44 263.085 34.033 259.492 39.422 259.492L50.945 259.492C57.964 269.015 66.128 277.773 75.352 285.541L75.352 349.316C75.352 352.909 77.148 356.502 80.741 357.4 81.479 358.138 82.818 358.268 83.773 358.291 84.828 358.393 85.859 358.278 86.844 357.967 88.054 357.622 89.088 357 90.089 356.101 90.27 355.942 90.448 355.777 90.621 355.603L130.144 316.08C137.434 318.358 144.954 319.94 152.471 320.949 177.75 324.552 203.14 321.795 226.593 313.152 226.828 313.066 227.061 312.975 227.296 312.888 228.034 312.612 228.772 312.337 229.506 312.049 235.184 309.845 240.694 307.31 246.018 304.47L246.018 331.35C246.018 336.739 249.611 340.332 255 340.332L272.965 340.332 272.965 385.244C272.965 388.837 274.762 392.43 278.354 393.328 279.093 394.067 280.432 394.196 281.386 394.219 282.441 394.321 283.472 394.206 284.457 393.895 285.667 393.549 286.7 392.928 287.702 392.029 287.883 391.87 288.061 391.705 288.234 391.531L299.911 379.854 299.911 430.158ZM479.561 313.386C479.561 318.775 475.968 322.368 470.579 322.368L335.842 322.368C333.147 322.368 331.351 323.266 329.554 325.063L302.607 352.01C302.607 352.01 302.607 352.01 302.607 352.01L290.93 363.687 290.93 331.35C290.93 325.961 287.337 322.368 281.948 322.368L263.983 322.368 263.983 293.214C273.827 286.05 282.778 277.739 290.643 268.473L354.706 268.473C359.197 268.473 362.79 264.88 362.79 259.491 362.79 254.102 359.197 250.509 354.706 250.509L303.768 250.509C309.051 242.047 313.528 233.03 317.093 223.562L372.671 223.562C377.162 223.562 380.755 219.969 380.755 214.58 380.755 209.191 378.06 205.598 372.671 205.598L322.611 205.598C324.689 196.959 326.033 188.034 326.576 178.889 326.581 178.809 326.587 178.73 326.592 178.651L344.825 178.651C350.214 178.651 353.807 175.058 353.807 169.669 353.807 164.279 350.214 160.687 344.825 160.687L326.592 160.687C326.587 160.607 326.581 160.528 326.576 160.449 326.033 151.304 324.689 142.379 322.611 133.74L372.671 133.74C377.162 133.74 380.755 130.147 380.755 124.758 380.755 119.369 378.06 115.776 372.671 115.776L317.093 115.776C313.528 106.308 309.052 97.29 303.768 88.829L335.842 88.829C341.231 88.829 344.824 85.236 344.824 79.847 344.824 74.458 341.231 70.865 335.842 70.865L290.93 70.865C290.835 70.865 290.746 70.875 290.652 70.877 282.785 61.606 273.831 53.291 263.983 46.124L263.983 25.947C263.983 20.558 267.576 16.965 272.965 16.965L470.579 16.965C475.968 16.965 479.561 20.558 479.561 25.947L479.561 313.386Z" stroke="#119CF4" fill="#119CF4"/><path d="M434.649 70.86 371.772 70.86C366.383 70.86 362.79 74.453 362.79 79.842 362.79 85.231 366.383 88.824 371.772 88.824L434.649 88.824C440.038 88.824 443.631 85.231 443.631 79.842 443.631 74.453 440.039 70.86 434.649 70.86Z" stroke="#119CF4" fill="#119CF4"/><path d="M434.649 115.772 407.702 115.772C402.313 115.772 398.72 119.365 398.72 124.754 398.72 130.143 402.313 133.736 407.702 133.736L434.649 133.736C440.038 133.736 443.631 130.143 443.631 124.754 443.631 119.365 440.039 115.772 434.649 115.772Z" stroke="#119CF4" fill="#119CF4"/><path d="M434.649 160.684 380.754 160.684C375.365 160.684 371.772 164.277 371.772 169.666 371.772 175.055 375.365 178.648 380.754 178.648L434.649 178.648C440.038 178.648 443.631 175.055 443.631 169.666 443.632 164.277 440.039 160.684 434.649 160.684Z" stroke="#119CF4" fill="#119CF4"/><path d="M434.649 205.596 407.702 205.596C402.313 205.596 398.72 209.189 398.72 214.578 398.72 219.968 402.313 223.56 407.702 223.56L434.649 223.56C440.038 223.56 443.631 219.967 443.631 214.578 443.632 209.189 440.039 205.596 434.649 205.596Z" stroke="#119CF4" fill="#119CF4"/><path d="M434.649 250.509 389.737 250.509C384.348 250.509 380.755 254.102 380.755 259.491 380.755 264.881 384.348 268.473 389.737 268.473L434.649 268.473C440.038 268.473 443.631 264.88 443.631 259.491 443.632 254.102 440.039 250.509 434.649 250.509Z" stroke="#119CF4" fill="#119CF4"/><path d="M201.105 133.737 246.017 133.737C251.407 133.737 254.999 130.144 254.999 124.755 254.999 119.366 251.406 115.773 246.017 115.773L201.105 115.773C195.715 115.773 192.123 119.366 192.123 124.755 192.123 130.144 195.716 133.737 201.105 133.737Z" stroke="#119CF4" fill="#119CF4"/><path d="M102.298 133.737 165.175 133.737C170.565 133.737 174.157 130.144 174.157 124.755 174.157 119.366 170.564 115.773 165.175 115.773L102.298 115.773C96.909 115.773 93.316 119.366 93.316 124.755 93.316 130.144 96.909 133.737 102.298 133.737Z" stroke="#119CF4" fill="#119CF4"/><path d="M246.018 160.684 237.036 160.684C231.647 160.684 228.054 164.277 228.054 169.666 228.054 175.055 231.647 178.648 237.036 178.648L246.018 178.648C251.408 178.648 255 175.055 255 169.666 255 164.277 251.407 160.684 246.018 160.684Z" stroke="#119CF4" fill="#119CF4"/><path d="M156.193 169.667C156.193 175.056 159.786 178.649 165.175 178.649L201.105 178.649C206.494 178.649 210.087 175.056 210.087 169.667 210.087 164.277 206.494 160.685 201.105 160.685L165.175 160.685C159.786 160.684 156.193 164.277 156.193 169.667Z" stroke="#119CF4" fill="#119CF4"/><path d="M102.298 178.649 129.245 178.649C134.634 178.649 138.227 175.056 138.227 169.667 138.227 164.277 134.634 160.685 129.245 160.685L102.298 160.685C96.909 160.685 93.316 164.278 93.316 169.667 93.316 175.056 96.909 178.649 102.298 178.649Z" stroke="#119CF4" fill="#119CF4"/><path d="M246.018 205.596 219.07 205.596C213.68 205.596 210.088 209.189 210.088 214.578 210.088 219.968 213.681 223.56 219.07 223.56L246.017 223.56C251.407 223.56 254.999 219.967 254.999 214.578 255 209.189 251.407 205.596 246.018 205.596Z" stroke="#119CF4" fill="#119CF4"/><path d="M102.298 223.561 183.14 223.561C188.53 223.561 192.122 219.968 192.122 214.579 192.122 209.19 188.529 205.597 183.14 205.597L102.298 205.597C96.909 205.597 93.316 209.19 93.316 214.579 93.316 219.968 96.909 223.561 102.298 223.561Z" stroke="#119CF4" fill="#119CF4"/><path d="M228.053 349.316 165.176 349.316C159.787 349.316 156.194 352.909 156.194 358.298 156.194 363.687 159.787 367.28 165.176 367.28L228.053 367.28C233.442 367.28 237.035 363.687 237.035 358.298 237.035 352.909 233.442 349.316 228.053 349.316Z" stroke="#119CF4" fill="#119CF4"/><path d="M120.263 367.281 129.245 367.281C134.634 367.281 138.227 363.688 138.227 358.299 138.227 352.91 134.634 349.317 129.245 349.317L120.263 349.317C114.873 349.317 111.281 352.91 111.281 358.299 111.281 363.688 114.874 367.281 120.263 367.281Z" stroke="#119CF4" fill="#119CF4"/><path d="M228.053 394.228 201.106 394.228C195.716 394.228 192.124 397.821 192.124 403.21 192.124 408.599 195.717 412.192 201.106 412.192L228.053 412.192C233.442 412.192 237.035 408.599 237.035 403.21 237.035 397.821 233.442 394.228 228.053 394.228Z" stroke="#119CF4" fill="#119CF4"/><path d="M165.175 394.228 120.263 394.228C114.873 394.228 111.281 397.821 111.281 403.21 111.281 408.599 114.874 412.192 120.263 412.192L165.175 412.192C170.565 412.192 174.157 408.599 174.157 403.21 174.157 397.821 170.565 394.228 165.175 394.228Z" stroke="#119CF4" fill="#119CF4"/></g></g></g><g></g><g></g><g></g><g></g><g></g><g></g><g></g><g></g><g></g><g></g><g></g><g></g><g></g><g></g><g></g></svg>